<svg xmlns="http://www.w3.org/2000/svg" viewBox="0 0 24 24" preserveAspectRatio="xMidYMid meet" fill="black" xmlns:v="https://vecta.io/nano"><path d="M7.446 3.724l-4.789.406C1.524 4.561 1 5.216.543 6.245.082 7.969.05 10.923.05 12s.033 4.031.494 5.755c.358.899 1.1 1.827 2.114 2.114.762.203 2.459.319 4.709.403l4.644.094 4.684-.093 4.647-.403c1.132-.431 1.66-1.086 2.115-2.114.461-1.725.493-4.678.493-5.755s-.032-4.031-.493-5.755c-.372-.917-1.101-1.827-2.115-2.114-.772-.206-2.507-.323-4.753-.405l-4.588-.091-4.555.09z" fill="red"/><path fill="#fff" d="M6.151 18.946h.731V9.441h-.731a1.462 1.462 0 0 0-1.462 1.462v6.58a1.462 1.462 0 0 0 1.462 1.462zm11.698-9.505h-5.118l.82-2.462a1.462 1.462 0 0 0-1.387-1.924H12L8.344 9.03v9.916h8.042l2.86-6.285.064-.295v-1.462a1.462 1.462 0 0 0-1.462-1.462z"/><path fill="red" d="M13.848 10.803h-1.902v2.215H9.727v1.902h2.219v2.215h1.902v-2.215h2.219v-1.902h-2.219z"/></svg>